<svg xmlns="http://www.w3.org/2000/svg" viewBox="0 0 307.71 95.05"><defs><style>.cls-1{isolation:isolate;}.cls-2,.cls-3{fill:#41ff00;}.cls-3{mix-blend-mode:screen;opacity:0.5;}</style></defs><g class="cls-1"><g id="Ebene_2" data-name="Ebene 2"><g id="Aufteilung"><g id="Logo_normal" data-name="Logo normal"><path class="cls-2" d="M60.93,70.48a27,27,0,0,1,7.29,16.06A41.94,41.94,0,0,1,44.71,95c-.62,0-1.24,0-1.87,0a42,42,0,0,1-25.79-8.82c-.9-.7-1.77-1.43-2.61-2.21a26.29,26.29,0,0,1,1.1-4A27.26,27.26,0,0,1,23.8,68.19a27,27,0,0,1,3-2.16,24.59,24.59,0,0,1,3.25-1.72,25.58,25.58,0,0,1,4.56-1.57c0-.34,0-.68-.06-1-.13-1.87-.32-3.71-.59-5.53h0c-.24-1.69-.54-3.36-.89-5-.12-.57-.25-1.13-.39-1.69a72.6,72.6,0,0,0-2.48-8.2h0c-.61-1.64-1.27-3.26-2-4.84-.14-.32-.29-.63-.45-.95-.37.31-.74.64-1.09,1s-1,1-1.43,1.47A24.26,24.26,0,0,0,22,42.58a24.13,24.13,0,0,0-2.5,15.47c.06.42.15.84.25,1.25-.26-.38-.51-.78-.74-1.18a22.8,22.8,0,0,1-1.75-19.34A26,26,0,0,0,2,62.55c0,.21,0,.43,0,.64A42.17,42.17,0,0,1,.74,53c0-.89,0-1.77.08-2.64A41.88,41.88,0,0,1,8.48,28.62a26.87,26.87,0,0,0-3.83-.27A26.37,26.37,0,0,0,0,28.76a19.33,19.33,0,0,1,16.47-9.19c.23,0,.46,0,.69,0a1.07,1.07,0,0,1,.25,0,.86.86,0,0,1,.06-.23,0,0,0,0,1,0,0q.24-.94.57-1.86A27,27,0,0,1,37.7,0,26.66,26.66,0,0,0,34,11.79a42.1,42.1,0,0,1,34.36,7.67,26.12,26.12,0,0,0-30.22,4.4h.51A22.75,22.75,0,0,1,58.21,35a24,24,0,0,0-14.89-5.14,23.62,23.62,0,0,0-3.88.32,22.78,22.78,0,0,0-5.07,1.4c-.57.22-1.13.47-1.67.74q1.57,2.12,3,4.35c.25.38.49.77.72,1.16a72.83,72.83,0,0,1,7.13,15.48,71.72,71.72,0,0,1,2.32,9.07,26.54,26.54,0,0,1,6.81,2.16c.48.21.94.45,1.4.7A26.52,26.52,0,0,1,59,68.61,24.6,24.6,0,0,1,60.93,70.48Z"/><path class="cls-3" d="M56.34,51.34a10.62,10.62,0,0,0,13.13,7.27,10.48,10.48,0,0,0,5.62-3.91,14.92,14.92,0,0,1-9.66-10.06,14.74,14.74,0,0,1-.34-6.74,9.59,9.59,0,0,0-1.47.3,10.72,10.72,0,0,0-5.47,3.69,10.83,10.83,0,0,0-1,1.54A10.52,10.52,0,0,0,56.34,51.34Z"/><path class="cls-2" d="M96.11,56.36H92v-15c0-2.44,1.76-4.08,5.44-4.08,3.31,0,4.78,1.33,5.77,3.47l6.92,12a1.66,1.66,0,0,0,1.51.78c.88,0,1.41-.42,1.41-1.06V37.6h4.18v15c0,2.47-1.79,4.11-5.45,4.11-3.3,0-4.81-1.33-5.79-3.47L99,41.24a1.48,1.48,0,0,0-1.47-.81c-1,0-1.44.42-1.44,1.09Z"/><path class="cls-2" d="M123.12,53.08v3.28h19.63V53.08ZM142.7,37.6H123.12v3.28H142.7Zm-.3,7.87H123.12v3H142.4Z"/><path class="cls-2" d="M153.06,37.6V50.13c0,1.86,1.19,2.95,3.93,2.95h6c2.67,0,3.9-1.09,3.9-2.95V37.6H171V50.38c0,3.95-2.64,6-7.7,6H156.5c-5.06,0-7.66-2-7.66-6V37.6Z"/><path class="cls-2" d="M180.42,37.6V49.86c0,1.8,1.12,3.22,4.85,3.22h9.21v3.28H185c-6.29,0-8.75-2.73-8.75-6.48V37.6Z"/><path class="cls-2" d="M202.51,56.36h-4.57l8.33-16.68c.88-1.75,2.5-2.41,5-2.41s4.08.66,4.92,2.41l8,16.68h-4.61l-7.2-15.09a1.14,1.14,0,0,0-1.16-.64,1.24,1.24,0,0,0-1.2.64Z"/><path class="cls-2" d="M232.71,56.36h-4.15v-15c0-2.44,1.76-4.08,5.45-4.08,3.3,0,4.78,1.33,5.76,3.47l6.93,12a1.65,1.65,0,0,0,1.51.78c.88,0,1.4-.42,1.4-1.06V37.6h4.19v15c0,2.47-1.8,4.11-5.45,4.11-3.31,0-4.82-1.33-5.8-3.47l-6.92-12a1.5,1.5,0,0,0-1.48-.81c-1,0-1.44.42-1.44,1.09Z"/><path class="cls-2" d="M273.38,37.6H261.46c-1.34,0-2,.5-2,1.53V49.19h4.15v-8c0-.25.13-.33.45-.33h9.29c4.6,0,6.54,1.8,6.54,6.08s-1.94,6.12-6.54,6.12H259.49v1.75c0,1,.63,1.53,2,1.53h11.92c7,0,10.69-3.06,10.69-9.37S280.31,37.6,273.38,37.6Z"/><rect class="cls-3" x="288.07" y="53.08" width="19.64" height="3.28"/><path class="cls-2" d="M92,63.38h.84v8.4H92Z"/><path class="cls-2" d="M94.81,65.46h.84v1.19h.09a2.44,2.44,0,0,1,.81-1,2.3,2.3,0,0,1,1.36-.4,2.37,2.37,0,0,1,1.34.37,2.28,2.28,0,0,1,.83,1,3.31,3.31,0,0,1,.28,1.38v3.75h-.82V68.12A2,2,0,0,0,99,66.58a2.07,2.07,0,0,0-2.81,0,2.09,2.09,0,0,0-.54,1.5v3.66h-.84Z"/><path class="cls-2" d="M104,74.09v-.71a2,2,0,0,0,.41.09,4.63,4.63,0,0,0,.54,0,2,2,0,0,0,1.48-.54,2,2,0,0,0,.52-1.47V70.24h-.1a2.35,2.35,0,0,1-2.23,1.4,2.47,2.47,0,0,1-1.4-.4,2.76,2.76,0,0,1-1-1.14,3.92,3.92,0,0,1-.34-1.65,4,4,0,0,1,.33-1.65,2.69,2.69,0,0,1,.94-1.13,2.52,2.52,0,0,1,1.42-.41,2.3,2.3,0,0,1,1.42.43,2.46,2.46,0,0,1,.84,1.06H107V65.48h.83v6a3.24,3.24,0,0,1-.29,1.32,2.39,2.39,0,0,1-.91,1,2.78,2.78,0,0,1-1.56.41A3,3,0,0,1,104,74.09Zm2-3.52a2.05,2.05,0,0,0,.7-.91,3.22,3.22,0,0,0,0-2.44,2,2,0,0,0-.69-.89,1.86,1.86,0,0,0-1.14-.34,1.83,1.83,0,0,0-1.13.34,2.07,2.07,0,0,0-.7.89,3.35,3.35,0,0,0,0,2.44,2.13,2.13,0,0,0,.7.91,1.83,1.83,0,0,0,1.13.34A1.85,1.85,0,0,0,106,70.57Z"/><path class="cls-2" d="M110.8,71.38a2.89,2.89,0,0,1-1-1.22,4,4,0,0,1,0-3.19,2.89,2.89,0,0,1,1-1.22,3,3,0,0,1,3.21,0A2.89,2.89,0,0,1,115,67a4,4,0,0,1,0,3.19,2.89,2.89,0,0,1-1,1.22,3,3,0,0,1-3.21,0Zm2.72-.61a2.17,2.17,0,0,0,.73-.92,3.36,3.36,0,0,0,0-2.59,2,2,0,0,0-.73-.92,2,2,0,0,0-2.23,0,2.1,2.1,0,0,0-.73.92,3.27,3.27,0,0,0-.25,1.3,3.21,3.21,0,0,0,.25,1.3,2.15,2.15,0,0,0,.72.92,1.94,1.94,0,0,0,1.13.34A1.86,1.86,0,0,0,113.52,70.77Z"/><path class="cls-2" d="M117.49,71.62a1,1,0,0,1-.41-.57,3.94,3.94,0,0,1-.09-.93V62.78h.83V70a4.08,4.08,0,0,0,0,.7.54.54,0,0,0,.23.36,1,1,0,0,0,.59.13l.27,0,.2,0v.6a3.42,3.42,0,0,1-.7.08A1.74,1.74,0,0,1,117.49,71.62Z"/><path class="cls-2" d="M121.4,71.55a2.1,2.1,0,0,1-.85-.79,1.88,1.88,0,0,1-.3-1v0h.84v0a1.38,1.38,0,0,0,.19.66,1.44,1.44,0,0,0,.56.53,1.93,1.93,0,0,0,.9.2,1.7,1.7,0,0,0,1.05-.31,1,1,0,0,0,.42-.85.87.87,0,0,0-.31-.72,1.61,1.61,0,0,0-.8-.34l-.87-.12a2.73,2.73,0,0,1-1.31-.53,1.43,1.43,0,0,1-.51-1.17,1.61,1.61,0,0,1,.62-1.34,2.5,2.5,0,0,1,1.6-.49,2.58,2.58,0,0,1,1.22.27,1.91,1.91,0,0,1,.79.72,1.78,1.78,0,0,1,.27,1v0h-.84v0a1.36,1.36,0,0,0-.14-.56,1.29,1.29,0,0,0-.48-.51,1.75,1.75,0,0,0-1.87.11,1,1,0,0,0-.39.83.87.87,0,0,0,.28.66,1.27,1.27,0,0,0,.73.33l1,.13a3.15,3.15,0,0,1,1.35.54A1.41,1.41,0,0,1,125,70a1.7,1.7,0,0,1-.3,1,2,2,0,0,1-.84.66,2.84,2.84,0,0,1-1.19.24A2.72,2.72,0,0,1,121.4,71.55Z"/><path class="cls-2" d="M128.05,66.14v3.94a3.42,3.42,0,0,0,0,.67.47.47,0,0,0,.22.33,1.08,1.08,0,0,0,.59.12,3.38,3.38,0,0,0,.67-.08v.6a1.62,1.62,0,0,1-.37.08,4.22,4.22,0,0,1-.52,0,2,2,0,0,1-1-.19.81.81,0,0,1-.42-.51,3,3,0,0,1-.11-.88l0-4.12H126v-.68h1.23V63.38h.82v2.08h1.53v.68Z"/><path class="cls-2" d="M132.07,71.42a2.67,2.67,0,0,1-.93-1.18,4.25,4.25,0,0,1-.31-1.67,4.3,4.3,0,0,1,.31-1.68,2.72,2.72,0,0,1,.94-1.19,2.58,2.58,0,0,1,1.48-.43,2.19,2.19,0,0,1,1.39.42,2.83,2.83,0,0,1,.82,1h.08V65.46h.83v6.32h-.83V70.41h-.08a2.93,2.93,0,0,1-.86,1,2.22,2.22,0,0,1-1.4.42A2.45,2.45,0,0,1,132.07,71.42Zm3.21-1a3,3,0,0,0,.54-1.83,2.94,2.94,0,0,0-.54-1.82,2,2,0,0,0-3.08,0,3,3,0,0,0-.52,1.82,3,3,0,0,0,.53,1.83,1.78,1.78,0,0,0,1.53.73A1.8,1.8,0,0,0,135.28,70.39Z"/><path class="cls-2" d="M139.47,71.42a2.67,2.67,0,0,1-.93-1.18,4.08,4.08,0,0,1-.32-1.67,4.13,4.13,0,0,1,.32-1.68,2.7,2.7,0,0,1,.93-1.19,2.58,2.58,0,0,1,1.48-.43,2.19,2.19,0,0,1,1.39.42,2.83,2.83,0,0,1,.82,1h.09V62.78h.82v9h-.82V70.41h-.09a2.71,2.71,0,0,1-.85,1,2.23,2.23,0,0,1-1.39.42A2.48,2.48,0,0,1,139.47,71.42Zm3.21-1a3.34,3.34,0,0,0,0-3.64,2,2,0,0,0-3.08,0,3.41,3.41,0,0,0,0,3.65,2,2,0,0,0,3.08,0Z"/><path class="cls-2" d="M147.39,66.14v3.94a3.62,3.62,0,0,0,0,.67.47.47,0,0,0,.22.33,1.11,1.11,0,0,0,.59.12,3.38,3.38,0,0,0,.67-.08v.6a1.62,1.62,0,0,1-.37.08,4.22,4.22,0,0,1-.52,0,2,2,0,0,1-1-.19.84.84,0,0,1-.42-.51,3,3,0,0,1-.1-.88V66.14h-1.23v-.68h1.23V63.38h.83v2.08h1.52v.68Z"/><path class="cls-2" d="M154.27,71.38a2.86,2.86,0,0,1-1-1.22,4.16,4.16,0,0,1,0-3.2,2.86,2.86,0,0,1,1-1.22,2.74,2.74,0,0,1,1.62-.47,2.6,2.6,0,0,1,2,.85,3.62,3.62,0,0,1,.76,2.46v.23h-4.88v.09a2.43,2.43,0,0,0,.26,1.09,2.08,2.08,0,0,0,.74.84,1.93,1.93,0,0,0,1.09.31A1.91,1.91,0,0,0,157,70.8a2.1,2.1,0,0,0,.72-.93h.82a2.92,2.92,0,0,1-.94,1.41,2.59,2.59,0,0,1-1.74.57A2.74,2.74,0,0,1,154.27,71.38Zm3.57-3.18a2.54,2.54,0,0,0-.58-1.72,2.07,2.07,0,0,0-2.85.1,2.59,2.59,0,0,0-.59,1.62Z"/><path class="cls-2" d="M160.44,71.67a.6.6,0,0,1-.18-.43.6.6,0,0,1,.18-.44.57.57,0,0,1,.43-.18.59.59,0,0,1,.44.18.6.6,0,0,1,.17.44.6.6,0,0,1-.61.61A.57.57,0,0,1,160.44,71.67Z"/><path class="cls-2" d="M162.6,63.38h.84L166.13,71h.07l2.69-7.59h.84l-3,8.4h-1.21Z"/><path class="cls-2" d="M171,71.67a.59.59,0,0,1-.17-.43.6.6,0,0,1,.17-.44.59.59,0,0,1,.44-.18.6.6,0,0,1,.44.18.64.64,0,0,1,.17.44.63.63,0,0,1-.17.43.6.6,0,0,1-.44.18A.59.59,0,0,1,171,71.67Z"/></g></g></g></g></svg>